<?xml version="1.0" encoding="utf-8"?>
<!-- Generator: Adobe Illustrator 16.0.0, SVG Export Plug-In . SVG Version: 6.00 Build 0)  -->
<!DOCTYPE svg PUBLIC "-//W3C//DTD SVG 1.1//EN" "http://www.w3.org/Graphics/SVG/1.1/DTD/svg11.dtd">
<svg version="1.1" id="Layer_1" xmlns="http://www.w3.org/2000/svg" xmlns:xlink="http://www.w3.org/1999/xlink" x="0px" y="0px"
	 width="612px" height="792px" viewBox="0 0 612 792" enable-background="new 0 0 612 792" xml:space="preserve">
<title>EPAM_LOGO_Full_Color_RGB</title>
<path d="M115.456,384.496v39.537c0,10.024,5.012,15.037,15.037,15.037h4.377c10.024,0,15.037-5.013,15.037-15.037v-19.438h23.179
	v18.484c0,25.38-12.837,38.241-38.241,38.241h-4.939c-25.38,0-38.241-12.837-38.241-35.258v-96.532
	c0-28.363,12.836-41.199,38.241-41.199h5.013c25.379,0,38.241,12.861,38.241,38.241v57.924H115.456z M115.456,361.562h34.011
	v-35.942c0-10.025-5.012-15.038-15.037-15.038h-3.765c-10.025,0-15.037,5.013-15.037,15.038L115.456,361.562z"/>
<path d="M188.588,290.214h23.815v10.978c7.505-8.152,18.065-12.812,29.146-12.861c20.367,0,30.392,13.472,30.392,33.522v105.92
	c0,20.05-10.025,33.522-30.392,33.522c-10.962,0.002-21.465-4.403-29.146-12.226v54.599h-23.815V290.214z M212.403,429.975
	c6.03,5.495,13.849,8.614,22.006,8.777c8.777,0,13.79-4.083,13.79-13.79V324.714c0-9.78-5.012-13.791-13.79-13.791
	c-8.157,0.164-15.976,3.283-22.006,8.778V429.975z"/>
<path d="M286.391,400.512c0-21.003,6.895-29.341,25.062-35.723l31.957-10.979v-28.191c0-10.025-5.012-15.355-15.037-15.355h-3.888
	c-10.024,0-15.037,5.331-15.037,15.355v23.961h-23.057v-23.033c0-25.38,12.837-38.241,38.241-38.241h4.499
	c25.379,0,38.24,12.861,38.24,38.241v132.865h-23.814v-10.661c-7.588,7.996-18.123,12.53-29.146,12.544
	c-19.121,0-27.898-10.979-27.898-29.781L286.391,400.512z M343.434,430.903v-55.796l-21.614,8.191
	c-8.777,3.448-11.589,7.824-11.589,17.556v25.747c0,8.142,4.083,12.225,11.589,12.225
	C329.326,438.825,335.585,436.233,343.434,430.903L343.434,430.903z"/>
<path d="M463.561,459.438h-23.815V323.125c0-8.46-4.083-12.226-11.271-12.226c-6.577,0-13.473,2.445-22.006,8.46v140.078h-23.741
	V290.214h23.814v10.978c6.896-6.577,15.991-12.861,29.146-12.861c12.226,0,20.367,5.012,24.744,13.79
	c8.46-7.213,18.484-13.79,32.274-13.79c18.485,0,27.898,11.272,27.898,29.781v141.325h-23.938V323.125
	c0-8.46-4.083-12.226-11.271-12.226c-6.577,0-13.473,2.445-22.006,8.46L463.561,459.438z"/>
<path fill="#6CCDE9" d="M61.2,305.79v31.125l-40.075,38.192L61.2,412.614V444.4L0.073,386.892v-22.886L61.2,305.79z"/>
<path fill="#6CCDE9" d="M612,364.006v22.886L550.873,444.4v-31.786l40.075-37.507l-40.075-38.192V305.79L612,364.006z"/>
</svg>
